<?xml version="1.0" encoding="UTF-8" standalone="no"?>
<!DOCTYPE svg PUBLIC "-//W3C//DTD SVG 1.1//EN" "http://www.w3.org/Graphics/SVG/1.1/DTD/svg11.dtd">
<svg width="100%" height="100%" viewBox="0 0 1000 1000" version="1.1" xmlns="http://www.w3.org/2000/svg" xmlns:xlink="http://www.w3.org/1999/xlink" xml:space="preserve" xmlns:serif="http://www.serif.com/" style="fill-rule:evenodd;clip-rule:evenodd;stroke-linejoin:round;stroke-miterlimit:2;">
    <rect id="CameraRotate" x="0" y="0" width="1000" height="1000" style="fill:none;"/>
    <path d="M110.905,775.454C110.905,789.222 122.038,800.399 135.807,800.454C250.787,800.908 729.656,802.799 845.052,803.255C851.699,803.282 858.084,800.659 862.793,795.968C867.503,791.277 870.151,784.903 870.151,778.255C870.151,697.787 870.151,446.826 870.151,366.497C870.151,352.69 858.958,341.497 845.151,341.497C808.508,341.497 741.259,341.497 710.666,341.497C700.962,341.497 692.134,335.881 688.022,327.091C678.068,305.813 659.544,266.216 649.59,244.938C645.478,236.148 636.65,230.532 626.946,230.532C574.255,230.532 405.754,230.532 352.768,230.532C342.959,230.532 334.057,236.267 330.003,245.199C320.357,266.45 302.598,305.578 292.952,326.83C288.898,335.761 279.996,341.497 270.187,341.497L135.905,341.497C122.098,341.497 110.905,352.69 110.905,366.497C110.905,446.491 110.905,695.599 110.905,775.454ZM583.011,614.353C562.599,647.087 526.271,668.899 484.885,668.899C440.97,668.899 402.749,644.339 383.195,608.228C376.624,596.095 361.439,591.579 349.306,598.15C337.173,604.72 332.657,619.905 339.228,632.038C367.234,683.755 421.99,718.899 484.885,718.899C547.78,718.899 602.536,683.755 630.543,632.038C630.675,631.794 630.802,631.549 630.925,631.302L674.383,646.673C678.097,647.987 682.237,646.997 684.955,644.146C687.674,641.294 688.465,637.111 686.975,633.464C676.028,606.67 657.365,560.987 649.188,540.971C648.142,538.41 646.081,536.397 643.497,535.41C640.912,534.424 638.034,534.552 635.548,535.765C615.55,545.516 569.011,568.212 541.503,581.626C537.882,583.393 535.674,587.16 535.903,591.183C536.132,595.206 538.753,598.698 542.552,600.042L583.011,614.353ZM338.443,469.239L294.986,453.867C291.272,452.553 287.132,453.543 284.413,456.395C281.695,459.247 280.904,463.429 282.394,467.076C293.34,493.87 312.004,539.553 320.181,559.569C321.227,562.13 323.287,564.144 325.872,565.13C328.457,566.117 331.335,565.988 333.821,564.776C353.818,555.024 400.358,532.329 427.866,518.914C431.487,517.148 433.695,513.38 433.466,509.357C433.237,505.334 430.616,501.842 426.817,500.498L386.358,486.187C406.77,453.454 443.098,431.642 484.484,431.642C528.399,431.642 566.619,456.201 586.174,492.312C592.745,504.445 607.93,508.961 620.063,502.39C632.196,495.82 636.712,480.635 630.141,468.502C602.135,416.786 547.379,381.642 484.484,381.642C421.589,381.642 366.832,416.786 338.826,468.502C338.694,468.746 338.567,468.991 338.443,469.239Z" style="fill:#fff;"/>
</svg>
