<?xml version="1.0" encoding="UTF-8" standalone="no"?>
<!DOCTYPE svg PUBLIC "-//W3C//DTD SVG 1.1//EN" "http://www.w3.org/Graphics/SVG/1.1/DTD/svg11.dtd">
<svg width="100%" height="100%" viewBox="0 0 1000 1000" version="1.1" xmlns="http://www.w3.org/2000/svg" xmlns:xlink="http://www.w3.org/1999/xlink" xml:space="preserve" xmlns:serif="http://www.serif.com/" style="fill-rule:evenodd;clip-rule:evenodd;stroke-linejoin:round;stroke-miterlimit:2;">
    <rect id="Camera" x="0" y="0" width="1000" height="1000" style="fill:none;"/>
    <path d="M112.092,798.377C112.092,812.146 123.225,823.323 136.993,823.377C251.973,823.831 730.843,825.723 846.238,826.179C852.886,826.205 859.27,823.583 863.98,818.891C868.69,814.2 871.337,807.826 871.337,801.179C871.337,720.71 871.337,469.749 871.337,389.421C871.337,375.614 860.144,364.421 846.337,364.421C809.695,364.421 742.446,364.421 711.853,364.421C702.148,364.421 693.32,358.804 689.208,350.014C679.255,328.737 660.73,289.139 650.777,267.862C646.665,259.071 637.837,253.455 628.132,253.455C575.442,253.455 406.94,253.455 353.954,253.455C344.146,253.455 335.243,259.191 331.189,268.122C321.544,289.374 303.784,328.502 294.139,349.753C290.085,358.685 281.182,364.421 271.374,364.421L137.092,364.421C123.285,364.421 112.092,375.614 112.092,389.421C112.092,469.414 112.092,718.523 112.092,798.377ZM494.713,396.47C401.321,396.47 325.497,472.293 325.497,565.686C325.497,659.078 401.321,734.902 494.713,734.902C588.106,734.902 663.929,659.078 663.929,565.686C663.929,472.293 588.106,396.47 494.713,396.47ZM494.713,446.47C560.51,446.47 613.929,499.889 613.929,565.686C613.929,631.483 560.51,684.902 494.713,684.902C428.916,684.902 375.497,631.483 375.497,565.686C375.497,499.889 428.916,446.47 494.713,446.47ZM795.987,411.788C809.546,411.788 820.555,422.797 820.555,436.356C820.555,449.916 809.546,460.924 795.987,460.924C782.427,460.924 771.419,449.916 771.419,436.356C771.419,422.797 782.427,411.788 795.987,411.788Z" style="fill:#fff;"/>
</svg>
