<?xml version="1.0" encoding="UTF-8" standalone="no"?>
<!DOCTYPE svg PUBLIC "-//W3C//DTD SVG 1.1//EN" "http://www.w3.org/Graphics/SVG/1.1/DTD/svg11.dtd">
<svg width="100%" height="100%" viewBox="0 0 1000 1000" version="1.1" xmlns="http://www.w3.org/2000/svg" xmlns:xlink="http://www.w3.org/1999/xlink" xml:space="preserve" xmlns:serif="http://www.serif.com/" style="fill-rule:evenodd;clip-rule:evenodd;stroke-linejoin:round;stroke-miterlimit:2;">
    <rect id="Flash" x="0" y="0" width="1000" height="1000" style="fill:none;"/>
    <g>
        <path d="M599.082,71.624C600.364,64.533 596.424,57.532 589.697,54.95C582.969,52.367 575.356,54.933 571.565,61.061C488.971,194.561 307.75,487.475 255.821,571.41C252.959,576.037 252.826,581.851 255.474,586.603C258.123,591.356 263.137,594.302 268.577,594.302C310.834,594.302 391.672,594.302 428.16,594.302C432.708,594.302 437.011,596.366 439.858,599.913C442.705,603.46 443.789,608.107 442.805,612.547C430.674,667.285 394.067,832.466 371.975,932.151C370.411,939.208 374.102,946.377 380.756,949.202C387.409,952.028 395.131,949.707 399.124,943.681C484.935,814.178 669.261,535.998 723.683,453.866C726.734,449.261 727.008,443.351 724.394,438.484C721.78,433.617 716.703,430.581 711.179,430.581L546.11,430.581C543.147,430.581 540.336,429.266 538.436,426.991C536.536,424.717 535.742,421.717 536.27,418.8C545.119,369.891 579.414,180.331 599.082,71.624Z" style="fill:#fff;fill-rule:nonzero;"/>
    </g>
</svg>
