<?xml version="1.0" encoding="UTF-8" standalone="no"?>
<!DOCTYPE svg PUBLIC "-//W3C//DTD SVG 1.1//EN" "http://www.w3.org/Graphics/SVG/1.1/DTD/svg11.dtd">
<svg width="100%" height="100%" viewBox="0 0 1000 1000" version="1.1" xmlns="http://www.w3.org/2000/svg" xmlns:xlink="http://www.w3.org/1999/xlink" xml:space="preserve" xmlns:serif="http://www.serif.com/" style="fill-rule:evenodd;clip-rule:evenodd;stroke-linejoin:round;stroke-miterlimit:2;">
    <rect id="FlashOutline" x="0" y="0" width="1000" height="1000" style="fill:none;"/>
    <path d="M409.472,624.302L342.686,925.66C337.994,946.831 349.068,968.338 369.028,976.815C388.987,985.292 412.154,978.329 424.132,960.252C509.943,830.749 694.269,552.569 748.691,470.437C757.845,456.621 758.665,438.892 750.824,424.291C742.984,409.69 727.752,400.581 711.179,400.581L570.053,400.581L628.602,76.965C632.451,55.692 620.629,34.689 600.448,26.942C580.266,19.195 557.427,26.894 546.053,45.277C463.459,178.777 282.238,471.691 230.309,555.626C221.722,569.506 221.323,586.948 229.268,601.206C237.213,615.464 252.255,624.302 268.577,624.302L409.472,624.302ZM555.488,144.068L506.749,413.459C504.639,425.125 507.812,437.126 515.411,446.224C523.011,455.322 534.256,460.581 546.11,460.581L683.246,460.581L418.747,859.754L472.094,619.039C475.046,605.717 471.795,591.775 463.254,581.134C454.713,570.493 441.805,564.302 428.16,564.302L295.496,564.302L555.488,144.068Z" style="fill:#fff;"/>
</svg>
