<?xml version="1.0" encoding="UTF-8" standalone="no"?>
<!DOCTYPE svg PUBLIC "-//W3C//DTD SVG 1.1//EN" "http://www.w3.org/Graphics/SVG/1.1/DTD/svg11.dtd">
<svg width="100%" height="100%" viewBox="0 0 1000 1000" version="1.1" xmlns="http://www.w3.org/2000/svg" xmlns:xlink="http://www.w3.org/1999/xlink" xml:space="preserve" xmlns:serif="http://www.serif.com/" style="fill-rule:evenodd;clip-rule:evenodd;stroke-linejoin:round;stroke-miterlimit:2;">
    <rect id="Gallery2" x="0" y="0" width="1000" height="1000" style="fill:none;"/>
    <path d="M781.037,401.521C781.037,382.191 765.367,366.521 746.037,366.521L141.116,366.521C121.786,366.521 106.116,382.191 106.116,401.521L106.116,845.559C106.116,864.889 121.786,880.559 141.116,880.559L746.037,880.559C765.367,880.559 781.037,864.889 781.037,845.559L781.037,401.521ZM711.037,436.521L711.037,810.559C711.037,810.559 176.116,810.559 176.116,810.559C176.116,810.559 176.116,436.521 176.116,436.521C282.971,436.521 604.182,436.521 711.037,436.521L711.037,436.521Z" style="fill:#fff;"/>
    <path d="M216.755,330.224L216.755,295.224C216.755,275.894 232.425,260.224 251.755,260.224L856.676,260.224C876.006,260.224 891.676,275.894 891.676,295.224L891.676,739.262C891.676,758.592 876.006,774.262 856.676,774.262L821.676,774.262L821.676,330.224L821.676,330.224L216.755,330.224Z" style="fill:#fff;"/>
    <circle cx="277.357" cy="532.025" r="53.4" style="fill:#fff;"/>
    <path d="M210.019,735.237C206.933,738.077 205.178,742.079 205.178,746.273C205.178,758.646 205.178,784.147 205.178,784.147L677.269,784.147L677.269,691.405C677.269,687.052 675.377,682.913 672.086,680.064C650.742,661.589 569.442,591.219 541.119,566.703C535.49,561.832 527.14,561.825 521.503,566.688C495.15,589.424 423.236,651.467 399.557,671.896C394.922,675.895 388.32,676.676 382.879,673.868C368.157,666.269 339.082,651.263 324.157,643.56C318.559,640.67 311.753,641.587 307.118,645.853C285.929,665.358 227.283,719.345 210.019,735.237Z" style="fill:#fff;"/>
</svg>
